<?xml version="1.0" encoding="UTF-8" standalone="no"?>
<!DOCTYPE svg PUBLIC "-//W3C//DTD SVG 1.1//EN"
"http://www.w3.org/Graphics/SVG/1.1/DTD/svg11.dtd">
<svg viewBox="0 0 908 1286" version="1.1" xmlns="http://www.w3.org/2000/svg" xmlns:xlink="http://www.w3.org/1999/xlink">
<defs>
<clipPath id="c0"><path d="M0,1285.5V0H909V1285.5Z"/></clipPath>
<style type="text/css"><![CDATA[
.g0{
fill: #FFFFFF;
}
.g1{
fill: #003D74;
}
.g2{
fill-opacity: 0.2;
}
.g3{
fill: #DFDFDF;
}
]]></style>
</defs>
<g clip-path="url(#c0)">
<path d="M0,-1285.4H909V1283.7H0V-1285.4Z" class="g0"/>
<path d="M0,-.8H909V1283.7H0V-.8Z" class="g0"/>
<path d="M0,-.8H290.2V1283.7H0V-.8Z" class="g1"/>
</g>
<path d="M0,341.6H290.2v39.5H0V341.6Z" class="g2"/>
<path d="M0,477.5H290.2V517H0V477.5Z" class="g2"/>
<path clip-path="url(#c0)" d="M290.2,-.8H909V1283.7H290.2V-.8Z" class="g0"/>
<path d="M312.2,21.1H887V22H312.2v-.9Z" class="g3"/>
<path d="M312.2,57.8H887v1H312.2v-1Z" class="g3"/>
<path d="M312.2,284.6H887v1H312.2v-1Z" class="g3"/>
<path d="M312.2,321.4H887v.9H312.2v-.9Z" class="g3"/>
</svg>